<svg xmlns="http://www.w3.org/2000/svg" version="1.1" xmlns:xlink="http://www.w3.org/1999/xlink" xmlns:svgjs="http://svgjs.dev/svgjs" width="100%" height="100%" viewBox="0 0 1000 600"><rect width="1000" height="600" x="0" y="0" fill="#ffffff00"/><g><rect width="333.3333333333333" height="333.3333333333333" y="227.59517614793032" fill="#ff6c9f" transform="matrix(0.608648876763462,0,0,0.608648876763462,0,60.03298819794095)" x="205.37297058105466"/><path d="M350.1652540412637 453.08682338308404L276.7915462709287 453.08682338308404L276.7915462709287 319.26185397928197L257.74485695354934 319.26185397928197L257.74485695354934 469.2618580033816L350.1652540412637 469.2618580033816L350.1652540412637 453.08682338308404ZM401.1517762139407 418.56836182020277L417.82495501638505 399.60958029967287L463.1560755917478 469.2618580033816L486.334431361051 469.2618580033816L430.3957699658554 384.8996756268661L482.847422086023 319.26185397928197L459.6690663167199 319.26185397928197L415.6858652930486 374.38004260388277L401.1517762139407 392.5183513538178L401.1517762139407 319.26185397928197L381.6655479123142 319.26185397928197L381.6655479123142 469.2618580033816L401.1517762139407 469.2618580033816L401.1517762139407 418.56836182020277Z " fill="#003cad" transform="matrix(0.608648876763462,0,0,0.608648876763462,0,60.03298819794095)"/><path d="M690.2489834890581 424.10614392351886L636.0967348306369 424.10614392351886L636.0967348306369 325.3388437545854L622.0396415287305 325.3388437545854L622.0396415287305 436.0438600814456L690.2489834890581 436.0438600814456L690.2489834890581 424.10614392351886ZM757.9176680146969 319.2618541886843L715.8545195959153 319.2618541886843L715.8545195959153 331.5023385100367L743.838948415403 331.5023385100367L743.838948415403 423.8682546522558L715.8545195959153 423.8682546522558L715.8545195959153 436.0438600814456L784.7559030726445 436.0438600814456L784.7559030726445 423.8682546522558L757.9176680146969 423.8682546522558L757.9176680146969 319.2618541886843ZM803.1382558520606 394.15372204176435L803.1382558520606 394.15372204176435L803.1382558520606 395.81894694060554Q803.1382558520606 404.7289814642755 805.7334115385664 412.319811847305Q808.3069409276846 419.93226852772204 813.172857839883 425.5551058484846L813.172857839883 425.5551058484846Q817.9738958599188 431.17794316924716 824.9375636187094 434.37863518260434Q831.8796050801124 437.55770089857396 840.6382555220695 437.55770089857396L840.6382555220695 437.55770089857396Q849.2887744770889 437.55770089857396 856.2091896411043 434.37863518260434Q863.1296048051198 431.17794316924716 867.9955217173182 425.5551058484846L867.9955217173182 425.5551058484846Q872.796559737354 419.93226852772204 875.3700891264722 412.319811847305Q877.965244812978 404.7289814642755 877.965244812978 395.81894694060554L877.965244812978 395.81894694060554L877.965244812978 394.15372204176435Q877.965244812978 385.26531381548193 875.3700891264722 377.60960454028987Q872.796559737354 369.97552156248526 867.9955217173182 364.35268424172267L867.9955217173182 364.35268424172267Q863.1296048051198 358.7298469209601 856.1659370463292 355.4859023128279Q849.2238955849263 352.2635840020831 840.4652451429691 352.2635840020831L840.4652451429691 352.2635840020831Q831.8147261879498 352.2635840020831 824.8943110239343 355.4859023128279Q817.9738958599188 358.7298469209601 813.172857839883 364.35268424172267L813.172857839883 364.35268424172267Q808.3069409276846 369.97552156248526 805.7334115385664 377.60960454028987Q803.1382558520606 385.26531381548193 803.1382558520606 394.15372204176435ZM817.2169754513546 395.81894694060554L817.2169754513546 395.81894694060554L817.2169754513546 394.15372204176435Q817.2169754513546 388.1416113680259 818.6659373763204 382.62690553420106Q820.0932730038986 377.1121997003762 823.0560757459926 372.9383243045794L823.0560757459926 372.9383243045794Q825.9539995959242 368.7644489087825 830.2792590734339 366.2774247092145Q834.626144848331 363.812026807034 840.4652451429691 363.812026807034L840.4652451429691 363.812026807034Q846.3259717349947 363.812026807034 850.6944838072794 366.2774247092145Q855.0629958795643 368.7644489087825 858.047424919046 372.9383243045794L858.047424919046 372.9383243045794Q860.9237224715899 377.1121997003762 862.4159369913308 382.62690553420106Q863.886525213684 388.1416113680259 863.886525213684 394.15372204176435L863.886525213684 394.15372204176435L863.886525213684 395.81894694060554Q863.886525213684 401.8959365065067 862.4591895861058 407.4106423403315Q861.01022766114 412.92534817415634 858.1123038112086 417.1208498673407L858.1123038112086 417.1208498673407Q855.1495010691145 421.2947252631376 850.7809889968297 423.716870570543Q846.4124769245449 426.16064217533597 840.6382555220695 426.16064217533597L840.6382555220695 426.16064217533597Q834.7775289300439 426.16064217533597 830.365764262984 423.716870570543Q825.9539995959242 421.2947252631376 823.0560757459926 417.1208498673407L823.0560757459926 417.1208498673407Q820.0932730038986 412.92534817415634 818.6659373763204 407.4106423403315Q817.2169754513546 401.8959365065067 817.2169754513546 395.81894694060554ZM907.1607462861683 469.26185286871987L907.1607462861683 469.26185286871987Q912.6970784173808 469.26185286871987 916.9574590027278 467.20735461690276Q921.2178395880748 465.1528563650857 924.4185316014319 462.1251747308289L924.4185316014319 462.1251747308289Q927.5975973174014 459.0758667991846 929.8467322457064 455.5075277302391Q932.0958671740117 451.93918866129366 933.5448290989774 448.7384966479365L933.5448290989774 448.7384966479365L975.2835830569458 353.77742481921155L959.5396385588105 353.77742481921155L938.3242408216255 407.15112677168094L934.4531335892543 416.818081703915L930.7982893307586 406.84835860825524L908.2204348581582 353.77742481921155L892.4764903600229 353.77742481921155L927.9003654808272 432.1727528490744L922.2775281600647 443.1156593271739Q921.5206077515004 444.62950014430226 920.20140361086 446.98676655954506Q918.860573172832 449.3440329747878 917.0439641922779 451.54991530831774L917.0439641922779 451.54991530831774Q915.1408500221736 453.7557976418477 912.7403310121558 455.35614364852626Q910.339812002138 456.95648965520485 907.4635144495941 456.95648965520485L907.4635144495941 456.95648965520485Q906.4038258776042 456.95648965520485 904.5223380048875 456.8483581682671Q902.6624764295583 456.7186003839418 900.759362259454 456.567216302229L900.759362259454 456.567216302229L898.4886010337615 468.0507802150172Q899.8510577691769 468.35354837844284 902.5110923478454 468.80770062358135Q905.1711269265139 469.26185286871987 907.1607462861683 469.26185286871987ZM1008.263686572957 407.60527901681945L1018.6226830215927 397.6571822185472L1048.7913678772225 436.0438600814456L1066.6546895193378 436.0438600814456L1028.2680116564393 388.07673247586325L1061.5725096332635 353.77742481921155L1044.466108399713 353.77742481921155L1017.4764892600525 380.8535491484221L1008.263686572957 390.7367670545317L1008.263686572957 319.2618541886843L994.141714378888 319.2618541886843L994.141714378888 436.0438600814456L1008.263686572957 436.0438600814456L1008.263686572957 407.60527901681945ZM1141.4816784802551 436.0438600814456L1141.4816784802551 436.0438600814456L1156.1443081090129 436.0438600814456L1156.1443081090129 434.83278742774286Q1154.7818513735974 431.4158324405102 1154.024930965033 426.8094310969624Q1153.268010556469 422.2030297534146 1153.268010556469 418.0940332497804L1153.268010556469 418.0940332497804L1153.268010556469 379.8587394685949Q1153.268010556469 372.9383243045794 1150.7593600595133 367.7696392289553Q1148.2507095625579 362.60095415333126 1143.9038237876603 359.09749397654844L1143.9038237876603 359.09749397654844Q1139.4920591206005 355.6805389893158 1133.5015747442499 353.97206149569945Q1127.4894640705115 352.2635840020831 1120.5041700143329 352.2635840020831L1120.5041700143329 352.2635840020831Q1112.8052081443657 352.2635840020831 1106.7714711732401 354.3829611460629Q1100.7161079047264 356.52396458743016 1096.5422325089294 359.9409195746628L1096.5422325089294 359.9409195746628Q1092.2818519235825 363.44437975144564 1090.0543432926652 367.7696392289553Q1087.8052083643602 372.094898706465 1087.71870317481 376.5931685630751L1087.71870317481 376.5931685630751L1101.8623016662664 376.5931685630751Q1101.8623016662664 373.99801287656925 1103.1166269147443 371.61912016393893Q1104.3709521632222 369.21860115392104 1106.6633396863022 367.46687106552963L1106.6633396863022 367.46687106552963Q1108.9341009119948 365.7151409771382 1112.2429244122895 364.65545240514837Q1115.5517479125847 363.59576383315846 1119.7256233083813 363.59576383315846L1119.7256233083813 363.59576383315846Q1124.2238931649913 363.59576383315846 1127.8354848287122 364.720331297311Q1131.4470764924326 365.86652505885104 1133.955726989388 367.92102331066815L1133.955726989388 367.92102331066815Q1136.464377486344 370.0404004546479 1137.8268342217593 373.02482949412956Q1139.1892909571748 375.9876322362237 1139.1892909571748 379.707355386882L1139.1892909571748 379.707355386882L1139.1892909571748 386.17361830575896L1123.8346198120157 386.17361830575896Q1115.248979749159 386.17361830575896 1108.2853119903684 387.8388432046002Q1101.3432705289651 389.50406810344145 1096.3908484272165 392.85614419851146L1096.3908484272165 392.85614419851146Q1091.4600526228555 396.27309918574406 1088.7567654494123 401.3769053692055Q1086.0534782759687 406.4590852552794 1086.0534782759687 413.22811633758204L1086.0534782759687 413.22811633758204Q1086.0534782759687 418.3968014132061 1088.0647239330106 422.85181867504105Q1090.0759695900524 427.30683593687604 1093.8173190380985 430.48590165284566L1093.8173190380985 430.48590165284566Q1097.4505369992066 433.773098855753 1102.748979859156 435.65458672846967Q1108.0257964217176 437.55770089857396 1114.5569382327571 437.55770089857396L1114.5569382327571 437.55770089857396Q1118.601055844229 437.55770089857396 1122.1693949131745 436.7359015978471Q1125.73773398212 435.8924759997327 1128.9384259954772 434.443514074767L1128.9384259954772 434.443514074767Q1132.0526128192841 432.9945521498013 1134.6693948031775 431.091437979697Q1137.2861767870709 429.2099501069803 1139.427180228438 427.068946665613L1139.427180228438 427.068946665613Q1139.6434432023134 429.6641023521188 1140.140848042227 432.0429950647491Q1140.6382528821405 434.443514074767 1141.4816784802551 436.0438600814456ZM1116.6114364845744 425.31721657722153L1116.6114364845744 425.31721657722153Q1112.5024399809404 425.31721657722153 1109.3882531571335 424.2575280052317Q1106.2740663333261 423.1978394332418 1104.219568081509 421.2947252631376L1104.219568081509 421.2947252631376Q1102.1650698296921 419.4781162825835 1101.1486338524774 416.8829605960777Q1100.110571577875 414.30943120695946 1100.110571577875 411.2601232753151L1100.110571577875 411.2601232753151Q1100.110571577875 408.05943126195797 1101.3000179341902 405.55078076500234Q1102.4678379931179 403.0421302680467 1104.7602255161978 401.22552128749265L1104.7602255161978 401.22552128749265Q1107.9392912321673 398.63036560098686 1113.3891181738295 397.37604035250905Q1118.8173188181045 396.12171510403124 1126.1270073350956 396.12171510403124L1126.1270073350956 396.12171510403124L1139.1892909571748 396.12171510403124L1139.1892909571748 412.7739640924435Q1137.9782183034722 415.21773569723644 1135.8588411594924 417.44524432815393Q1133.7178377181253 419.694379256459 1130.8415401655811 421.4461093448504L1130.8415401655811 421.4461093448504Q1127.878737423487 423.1978394332418 1124.288772057154 424.2575280052317Q1120.7204329882088 425.31721657722153 1116.6114364845744 425.31721657722153ZM1205.3441346656855 426.9175625839001L1205.3441346656855 426.9175625839001Q1205.3441346656855 431.32932725096 1208.1123007312917 434.40026147999185Q1210.9020930942852 437.4928220064113 1216.373546333335 437.4928220064113L1216.373546333335 437.4928220064113Q1221.7584943828347 437.4928220064113 1224.656418232766 434.443514074767Q1227.5543420826975 431.4158324405102 1227.5543420826975 426.9175625839001L1227.5543420826975 426.9175625839001Q1227.5543420826975 422.35441383512745 1224.699670827541 419.19697441654534Q1221.844999572385 416.0395349979633 1216.373546333335 416.0395349979633L1216.373546333335 416.0395349979633Q1210.815587904735 416.0395349979633 1208.090674433904 419.2402270113205Q1205.3441346656855 422.4409190246776 1205.3441346656855 426.9175625839001ZM1281.1443070090422 361.5412655813414L1280.7550336560666 353.77742481921155L1268.1469022791257 353.77742481921155L1268.1469022791257 436.0438600814456L1281.5335803620183 436.0438600814456L1281.5335803620183 370.5810578893366Q1281.9877326071569 369.3699852356339 1282.701400420946 368.31029666364407Q1283.4366945321226 367.2289817942666 1284.409877914562 366.4071824935398L1284.409877914562 366.4071824935398Q1285.7074557578148 365.32586762416236 1287.5673173331443 364.7635838920861Q1289.4271789084733 364.20130016000985 1291.935829405429 364.20130016000985L1291.935829405429 364.20130016000985Q1294.228216928509 364.20130016000985 1295.9366944221256 364.7635838920861Q1297.6451719157417 365.32586762416236 1298.7913656772816 366.5585665752526L1298.7913656772816 366.5585665752526Q1300.0024383309847 367.834518121118 1300.5647220630608 369.82413748077244Q1301.1486320925246 371.7921305430393 1301.1486320925246 374.3872862295451L1301.1486320925246 374.3872862295451L1301.1486320925246 436.0438600814456L1314.5136838780295 436.0438600814456L1314.5136838780295 374.45216512170776Q1314.5136838780295 373.99801287656925 1314.5136838780295 373.65199211836847Q1314.5136838780295 373.32759765755526 1314.5136838780295 372.9383243045794L1314.5136838780295 372.9383243045794Q1314.7515731492927 371.0352101344751 1315.443614665694 369.47811672257166Q1316.114029884708 367.92102331066815 1317.3251025384106 366.7099506569655L1317.3251025384106 366.7099506569655Q1318.557801489501 365.5637568954254 1320.374410470055 364.87171537902384Q1322.191019450609 364.20130016000985 1324.721296244952 364.20130016000985L1324.721296244952 364.20130016000985Q1327.0569363628074 364.20130016000985 1328.8519190459742 364.8068364868612Q1330.6469017291406 365.4123728137126 1331.8579743828432 366.62344546741525L1331.8579743828432 366.62344546741525Q1333.0041681443836 367.92102331066815 1333.6097044712346 369.8890163729351Q1334.2152407980861 371.8786357325895 1334.2152407980861 374.45216512170776L1334.2152407980861 374.45216512170776L1334.2152407980861 436.0438600814456L1347.6019188809787 436.0438600814456L1347.6019188809787 374.6035492034206Q1347.6019188809787 368.67794371923236 1346.2178358481756 364.3094316469476Q1344.8553791127597 359.9409195746628 1342.2818497236417 357.19437980644415L1342.2818497236417 357.19437980644415Q1339.9245833083987 354.77223449903875 1336.4860020237788 353.51790925056093Q1333.0690470365462 352.2635840020831 1328.8086664511989 352.2635840020831L1328.8086664511989 352.2635840020831Q1325.694479627392 352.3284628942458 1323.0776976434986 353.08538330281Q1320.4609156596052 353.8639300087617 1318.3199122182382 355.1398815546271L1318.3199122182382 355.1398815546271Q1316.6546873193965 356.2860753161671 1315.2057253944313 357.79991613329554Q1313.7567634694656 359.3353832478115 1312.6970748974754 361.0871133362029L1312.6970748974754 361.0871133362029Q1311.8536492993612 359.1839991660986 1310.6858292404336 357.64853205158266Q1309.4963828841182 356.1346912344543 1308.0690472565402 355.07500266246444L1308.0690472565402 355.07500266246444Q1306.0794278968856 353.7125459270489 1303.4626459129922 352.97725181587225Q1300.8458639290989 352.2635840020831 1297.5586667261914 352.2635840020831L1297.5586667261914 352.2635840020831Q1291.7844453237162 352.3284628942458 1287.7187014148572 354.77223449903875Q1283.652957505998 357.19437980644415 1281.1443070090422 361.5412655813414L1281.1443070090422 361.5412655813414ZM1404.0898076572548 437.55770089857396L1404.0898076572548 437.55770089857396Q1416.0924027073443 437.55770089857396 1424.2671431198378 432.73503658115067Q1432.4418835323308 427.9123722637274 1436.5508800359648 421.68399861611346L1436.5508800359648 421.68399861611346L1427.9652399731085 414.97984642597345Q1424.0725064433495 419.99714741988464 1418.2334061487118 423.04645535152895Q1412.3726795566859 426.07413698578574 1404.8467280658192 426.07413698578574L1404.8467280658192 426.07413698578574Q1399.1373855555062 426.07413698578574 1394.4228527250207 423.954759841806Q1389.7083198945352 421.8353826978263 1386.3778700968528 418.0940332497804L1386.3778700968528 418.0940332497804Q1383.112299191333 414.61219937038516 1381.2308113186164 410.0490506216124Q1379.370949743287 405.4859018728397 1378.8519186059862 399.47379119910124L1378.8519186059862 399.47379119910124L1378.8519186059862 398.93313376441256L1437.610568607955 398.93313376441256L1437.610568607955 392.63988122463593Q1437.610568607955 384.0326148643917 1435.4479388692002 376.6580474552377Q1433.285309130445 369.2834800460837 1428.8735444633853 363.812026807034L1428.8735444633853 363.812026807034Q1424.4617797963256 358.42707875753445 1417.8008802009608 355.334518231115Q1411.1616069029833 352.2635840020831 1402.2515723793135 352.2635840020831L1402.2515723793135 352.2635840020831Q1395.179773133585 352.2635840020831 1388.4539946460577 355.1398815546271Q1381.72821615853 358.0378054045585 1376.4946521907432 363.44437975144564L1376.4946521907432 363.44437975144564Q1371.1745830334062 368.9158329904954 1367.973891020049 376.787805239563Q1364.7731990066918 384.6381511912431 1364.7731990066918 394.60787428690287L1364.7731990066918 394.60787428690287L1364.7731990066918 397.80856630026005Q1364.7731990066918 406.3942063631167 1367.6711228566232 413.68226858272055Q1370.5474204091674 420.9919570997119 1375.7161054847916 426.3120262570488L1375.7161054847916 426.3120262570488Q1380.906416857803 431.6320954143857 1388.151226482632 434.5948981564798Q1395.4176624048478 437.55770089857396 1404.0898076572548 437.55770089857396ZM1402.2515723793135 363.812026807034L1402.2515723793135 363.812026807034Q1407.6581467262004 363.812026807034 1411.5725065533466 365.80164616668844Q1415.4868663804928 367.7696392289553 1418.082022066999 370.97033124231245L1418.082022066999 370.97033124231245Q1420.6555514561169 374.14939695828207 1422.1045133810826 378.5179090305669Q1423.5534753060483 382.9080474002392 1423.5534753060483 386.6926494430602L1423.5534753060483 386.6926494430602L1423.5534753060483 387.3846909594617L1379.3060708511243 387.3846909594617Q1380.1278701518513 381.67534844914894 1382.2256209984434 377.30683637686417Q1384.3233718450356 372.9383243045794 1387.3510534792922 369.8890163729351L1387.3510534792922 369.8890163729351Q1390.4003614109365 366.92621363084095 1394.2065897511452 365.36912021893744Q1398.012818091354 363.812026807034 1402.2515723793135 363.812026807034Z " fill="#ff6c9f" transform="matrix(0.608648876763462,0,0,0.608648876763462,0,60.03298819794095)"/></g></svg>